<svg width="16" height="16" viewBox="0 0 16 16" fill="none" xmlns="http://www.w3.org/2000/svg">
<path fill-rule="evenodd" clip-rule="evenodd" d="M7.63907 2.14402V7.67315C7.63907 8.14501 8.19975 8.39199 8.54791 8.0735L10.2712 6.49704C10.4785 6.30737 10.7964 6.30737 11.0037 6.49703L12.727 8.0735C13.0752 8.39199 13.6359 8.14501 13.6359 7.67315V2.13554C13.9757 2.13596 14.2863 2.13652 14.5656 2.13715C15.4611 2.13915 16.1344 2.94903 15.9771 3.83056L14.1512 14.0655C13.9962 14.9344 13.2376 15.5655 12.3549 15.5636C11.3598 15.5614 9.87575 15.5615 7.89404 15.5705C5.92391 15.5794 4.53244 15.58 3.60918 15.5781C2.74113 15.5763 2.00326 14.9524 1.85081 14.0978L0.0228987 3.85174C-0.135631 2.96313 0.549177 2.14757 1.45182 2.14962C2.79435 2.15267 4.88903 2.15377 7.63907 2.14402ZM7.63907 2.14402V1.14295C7.63907 0.744306 7.96223 0.421143 8.36087 0.421143H12.914C13.3127 0.421143 13.6359 0.744306 13.6359 1.14295V2.13554C12.1934 2.13373 10.2251 2.13439 7.89404 2.1431C7.80844 2.14342 7.72344 2.14373 7.63907 2.14402Z" fill="#00C37D"/>
</svg>
