<svg width="24" height="24" viewBox="0 0 24 24" fill="none" xmlns="http://www.w3.org/2000/svg">
<path d="M22 20C22.5523 20 23 19.5523 23 19C23 18.4477 22.5523 18 22 18C21.4477 18 21 18.4477 21 19C21 19.5523 21.4477 20 22 20Z" fill="#353535" stroke="#353535" stroke-linecap="round" stroke-linejoin="round"/>
<path d="M22 13C22.5523 13 23 12.5523 23 12C23 11.4477 22.5523 11 22 11C21.4477 11 21 11.4477 21 12C21 12.5523 21.4477 13 22 13Z" fill="#353535" stroke="#353535" stroke-linecap="round" stroke-linejoin="round"/>
<path d="M22 6C22.5523 6 23 5.55228 23 5C23 4.44772 22.5523 4 22 4C21.4477 4 21 4.44772 21 5C21 5.55228 21.4477 6 22 6Z" fill="#353535" stroke="#353535" stroke-linecap="round" stroke-linejoin="round"/>
</svg>
